<?xml version="1.0" encoding="iso-8859-1"?>
<!-- Generator: Adobe Illustrator 19.0.0, SVG Export Plug-In . SVG Version: 6.00 Build 0)  -->
<svg version="1.1" id="Layer_1" xmlns="http://www.w3.org/2000/svg" xmlns:xlink="http://www.w3.org/1999/xlink" x="0px" y="0px"
	 viewBox="0 0 506.8 506.8" style="enable-background:new 0 0 506.8 506.8;" xml:space="preserve">
<path style="fill:#FFC52F;" d="M146.8,292.8l74-155.2c-21.2-12.8-34.4-36.4-34.4-61.6c0-39.6,32.4-72,72-72s72,32.4,72,72
	c0,25.2-13.2,48.8-34.8,61.6l74,155.2H352l-74-155.6c-2-4,0-8.8,4-10.8c19.6-9.2,32.4-29.2,32.4-50.8c0-30.8-25.2-56-56-56
	s-56,25.2-56,56c0,21.6,12.8,41.6,32.4,50.8c4,2,5.6,6.8,4,10.8l-74,155.6H146.8z"/>
<path style="fill:#676767;" d="M287.2,308.8c0-7.6-7.2-16-15.2-16h-36c-7.6,0-12.8,5.2-12.8,12.8v11.2h-48v-24H42
	c-17.6,0-34.8,13.2-34.8,30.8v144c0,17.6,17.2,32.8,34.8,32.8h432c17.6,0,29.2-15.2,29.2-32.8v-144c0-17.6-11.6-30.8-29.2-30.8
	H339.2v24h-52V308.8"/>
<path d="M165.2,296c-0.4,0-1.2,0-1.6-0.4c-2-0.8-2.8-3.2-2-5.2l73.2-154.8c0.8-2,0-4.4-2-5.2C211.6,120.4,198,99.2,198,76
	c0-33.2,26.8-60,60-60s60,26.8,60,60c0,23.2-13.6,44.4-34.8,54.4c-2,0.8-2.8,3.2-2,5.2l72.8,154c0.8,2,0,4.4-2,5.2
	c-2,0.8-4.4,0-5.2-2l-72.8-154c-2.8-6,0-13.2,6-16c18.4-8.4,30-27.2,30-47.2c0-28.8-23.2-52-52-52s-52,23.2-52,52
	c0,20,11.6,38.4,30,47.2c6,2.8,8.4,10,6,16l-73.2,154.8C168,294.8,166.4,296,165.2,296z M147.2,296c-0.4,0-1.2,0-1.6-0.4
	c-2-0.8-2.8-3.2-2-5.2l72-151.6c-20.8-14-33.6-38-33.6-62.8c0-42,34-76,76-76s76,34,76,76c0,25.2-12.8,48.8-33.6,62.8L372,290
	c0.8,2,0,4.4-2,5.2c-2,0.8-4.4,0-5.2-2l-73.2-154.4c-0.8-2-0.4-4,1.6-5.2c20.4-12.4,32.8-34.4,32.8-58c0-37.6-30.4-68-68-68
	s-68,30.4-68,68c0,23.6,12.4,45.6,32.8,58c1.6,1.2,2.4,3.2,1.6,5.2l-73.2,154.4C150.4,294.8,148.8,296,147.2,296z"/>
<path d="M474,506.8H42c-20.4,0-40.8-19.6-40.8-38.8V324c0-19.6,21.2-32.8,40.8-32.8h131.2c2.4,0,4,1.6,4,4v20h40v-8
	c0-9.6,6.8-16,17.2-16h38c9.6,0,17.2,7.6,17.2,18v6h44v-20c0-2.4,1.6-4,4-4h136.8c19.2,0,31.2,12.8,31.2,32.8v144
	C505.2,487.2,494.4,506.8,474,506.8z M42,298.8c-16,0-32.8,10-32.8,24.8v144c0,15.2,16.8,30.8,32.8,30.8h432
	c15.2,0,23.2-15.6,23.2-30.8v-144c0-9.2-2.8-24.8-23.2-24.8H341.2v20c0,2.4-1.6,4-4,4h-52c-2.4,0-4-1.6-4-4v-10c0-5.6-3.6-10-9.2-10
	h-38c-2.8,0-9.2,0.8-9.2,8v12c0,2.4-1.6,4-4,4h-48c-2.4,0-4-1.6-4-4v-20H42z"/>
<g>
</g>
<g>
</g>
<g>
</g>
<g>
</g>
<g>
</g>
<g>
</g>
<g>
</g>
<g>
</g>
<g>
</g>
<g>
</g>
<g>
</g>
<g>
</g>
<g>
</g>
<g>
</g>
<g>
</g>
</svg>
